<?xml version="1.0" encoding="UTF-8"?><svg xmlns="http://www.w3.org/2000/svg" xmlns:xlink="http://www.w3.org/1999/xlink" contentScriptType="text/ecmascript" width="675pt" zoomAndPan="magnify" contentStyleType="text/css" viewBox="0 0 675 675.000002" height="675.000002pt" preserveAspectRatio="xMidYMid meet" version="1.2"><defs><clipPath xml:id="clip1" id="clip1"><path d="M 31.25 0 L 643.84375 0 L 643.84375 674 L 31.25 674 Z M 31.25 0 "/></clipPath></defs><g xml:id="surface1" id="surface1"><g clip-rule="nonzero" clip-path="url(#clip1)"><path style=" stroke:none;fill-rule:nonzero;fill:rgb(99.21875%,96.469116%,84.309387%);fill-opacity:1;" d="M 107.824219 0.125 C 65.589844 0.125 31.25 34.460938 31.25 76.6875 C 31.25 113.652344 57.632812 144.636719 92.511719 151.816406 L 92.511719 474.8125 C 92.511719 550.71875 154.425781 612.625 230.34375 612.625 L 306.917969 612.625 L 306.917969 582 L 230.34375 582 C 170.9375 582 123.140625 534.207031 123.140625 474.8125 L 123.140625 151.816406 C 158.015625 144.636719 184.398438 113.652344 184.398438 76.6875 C 184.398438 34.460938 150.058594 0.125 107.824219 0.125 Z M 312.660156 0.125 L 216.941406 76.6875 L 312.660156 153.25 L 337.546875 153.25 L 337.546875 0.125 Z M 368.175781 61.375 L 368.175781 92 L 444.75 92 C 504.15625 92 551.953125 139.792969 551.953125 199.1875 L 551.953125 522.1875 C 517.078125 529.363281 490.695312 560.347656 490.695312 597.3125 C 490.695312 639.542969 525.035156 673.875 567.269531 673.875 C 609.503906 673.875 643.84375 639.542969 643.84375 597.3125 C 643.84375 560.347656 617.460938 529.363281 582.582031 522.1875 L 582.582031 199.1875 C 582.582031 123.285156 520.667969 61.375 444.75 61.375 Z M 337.546875 520.75 L 337.546875 673.875 L 362.433594 673.875 L 458.152344 597.3125 L 362.433594 520.75 Z M 337.546875 520.75 "/></g></g></svg>